<svg viewBox="0 0 40 40" fill="none" xmlns="http://www.w3.org/2000/svg">
<style>
  :root {
    --color-N600: #0f1e57;
    --color-brand: #e4002b;
    --color-blue-light: #e5eaff;
  }
  @media (prefers-color-scheme: dark) {
    :root {
      --color-N600: #e5eaff;
      --color-blue-light: #0e41aa;
    }
  }
</style>
<path d="M27.7501 4.83008H17.3801L18.0601 9.75007L29.6801 9.70007L29.5101 6.75007C29.5101 5.70007 28.7201 4.83008 27.7501 4.83008Z" fill="var(--color-blue-light, #e5eaff)"/>
<path d="M20 14C19.99 14 20 14 20 14C13.38 14 8 19.39 8 26.01C8 32.62 13.39 38 20 38C20 38 20 38 20.01 38C23.22 38 26.23 36.75 28.49 34.48C30.76 32.21 32 29.2 32 25.99C32 19.38 26.61 14 20 14ZM27.43 33.42C25.45 35.4 22.81 36.5 20.01 36.5C20.01 36.5 20.01 36.5 20 36.5C14.21 36.5 9.5 31.79 9.5 26.01C9.5 20.22 14.2 15.51 19.99 15.5C19.99 15.5 19.99 15.5 20 15.5C25.79 15.5 30.5 20.21 30.5 25.99C30.5 28.8 29.41 31.44 27.43 33.42Z" fill="var(--color-brand, #e4002b)"/>
<path d="M34.4699 9.00981H30.39L30.26 6.75981C30.26 5.28981 29.1299 4.08982 27.75 4.08982H17.56C16.97 3.43982 16.15 3.0498 15.26 3.0498H5.52996C4.10996 3.0498 2.95996 4.19982 2.95996 5.61982V28.5598C2.95996 29.9798 4.10996 31.1298 5.52996 31.1298H6.19995C6.60995 31.1298 6.94995 30.7898 6.94995 30.3798C6.94995 29.9698 6.60995 29.6298 6.19995 29.6298H5.52996C4.93996 29.6298 4.45996 29.1498 4.45996 28.5598V5.60981C4.45996 5.01981 4.93996 4.53982 5.52996 4.53982H15.26C15.79 4.53982 16.29 4.79981 16.59 5.22981L17.3199 9.86982C17.3299 9.91982 17.3499 9.96981 17.3699 10.0098C17.3799 10.0398 17.39 10.0798 17.41 10.1098C17.43 10.1498 17.47 10.1898 17.5 10.2198C17.5199 10.2498 17.5399 10.2798 17.5699 10.3098C17.6099 10.3398 17.66 10.3698 17.71 10.3898C17.74 10.4098 17.7699 10.4298 17.8 10.4398C17.88 10.4698 17.9699 10.4898 18.0699 10.4898H34.48C35.07 10.4898 35.5499 10.9698 35.5499 11.5598V28.5298C35.5499 29.1198 35.07 29.5998 34.48 29.5998H33.79C33.38 29.5998 33.04 29.9398 33.04 30.3498C33.04 30.7598 33.38 31.0998 33.79 31.0998H34.48C35.9 31.0998 37.0499 29.9498 37.0499 28.5298V11.5598C37.0399 10.1598 35.8899 9.00981 34.4699 9.00981ZM27.75 5.57981C28.3099 5.57981 28.76 6.10982 28.76 6.78982L28.88 8.9498L18.7 8.98982L18.23 5.56982H27.75V5.57981Z" fill="var(--color-N600, #0f1e57)"/>
<path d="M14.74 28.032C15.8446 28.032 16.74 27.1614 16.74 26.0875C16.74 25.0136 15.8446 24.1431 14.74 24.1431C13.6354 24.1431 12.74 25.0136 12.74 26.0875C12.74 27.1614 13.6354 28.032 14.74 28.032Z" fill="var(--color-blue-light, #e5eaff)"/>
<path d="M24.24 23.6179C25.3446 23.6179 26.24 22.7473 26.24 21.6734C26.24 20.5996 25.3446 19.729 24.24 19.729C23.1354 19.729 22.24 20.5996 22.24 21.6734C22.24 22.7473 23.1354 23.6179 24.24 23.6179Z" fill="var(--color-blue-light, #e5eaff)"/>
<path d="M24.24 32.261C25.3446 32.261 26.24 31.3904 26.24 30.3165C26.24 29.2426 25.3446 28.3721 24.24 28.3721C23.1354 28.3721 22.24 29.2426 22.24 30.3165C22.24 31.3904 23.1354 32.261 24.24 32.261Z" fill="var(--color-blue-light, #e5eaff)"/>
<path d="M24.24 24.3472C25.76 24.3472 26.99 23.1514 26.99 21.6736C26.99 20.1958 25.76 19 24.24 19C22.72 19 21.49 20.1958 21.49 21.6736C21.49 21.7514 21.51 21.8194 21.51 21.8972L16.88 24.425C16.38 23.8125 15.61 23.4139 14.75 23.4139C13.23 23.4139 12 24.6097 12 26.0875C12 27.5653 13.23 28.7611 14.75 28.7611C15.52 28.7611 16.21 28.45 16.71 27.9639L21.42 30.482C21.45 30.5014 21.49 30.4917 21.52 30.5111C21.62 31.9014 22.8 33 24.25 33C25.77 33 27 31.8042 27 30.3264C27 28.8486 25.77 27.6528 24.25 27.6528C23.21 27.6528 22.31 28.2264 21.85 29.0528L17.44 26.6903C17.48 26.4958 17.51 26.3014 17.51 26.0972C17.51 25.9903 17.49 25.8833 17.48 25.7861L22.07 23.2875C22.55 23.9195 23.34 24.3472 24.24 24.3472ZM24.24 29.1014C24.93 29.1014 25.49 29.6458 25.49 30.3167C25.49 30.9875 24.93 31.5319 24.24 31.5319C23.55 31.5319 22.99 30.9875 22.99 30.3167C22.99 29.6458 23.55 29.1014 24.24 29.1014ZM14.74 27.3028C14.05 27.3028 13.49 26.7583 13.49 26.0875C13.49 25.4167 14.05 24.8722 14.74 24.8722C15.43 24.8722 15.99 25.4167 15.99 26.0875C15.99 26.7583 15.43 27.3028 14.74 27.3028ZM24.24 20.4583C24.93 20.4583 25.49 21.0028 25.49 21.6736C25.49 22.3444 24.93 22.8889 24.24 22.8889C23.55 22.8889 22.99 22.3444 22.99 21.6736C22.99 21.0028 23.55 20.4583 24.24 20.4583Z" fill="var(--color-N600, #0f1e57)"/>
</svg>
